# xmcd
#
# Track frame offsets: 
#        150
#        14022
#        24495
#        33407
#        43282
#        52715
#        62990
#        73812
#
# Disc length: 2181 seconds
#
# Revision: 0
# Processed by: cddbd v1.4PL0 Copyright (c) Steve Scherf et al.
# Submitted via: ExactAudioCopy v0.90b4
#
DISCID=6e088308
DTITLE=Everly Brothers - Ebony Eyes and Other Great Songs
DYEAR=1989
DGENRE=Blues
TTITLE0=Ebony Eyes
TTITLE1=Walk Right Back
TTITLE2=Crying In The Rain
TTITLE3=Temptation
TTITLE4=Love Of My Life
TTITLE5=This Little Girl Of Mine
TTITLE6=That's Old Fashioned
TTITLE7=Songs 8 - 16
EXTD=
EXTT0=
EXTT1=
EXTT2=
EXTT3=
EXTT4=
EXTT5=
EXTT6=
EXTT7=
PLAYORDER=
